<?xml version="1.0" encoding="UTF-8"?>
<svg width="1024px" height="1024px" viewBox="0 0 1024 1024" xmlns="http://www.w3.org/2000/svg" xmlns:xlink="http://www.w3.org/1999/xlink" version="1.1">
 <!-- Generated by Pixelmator Pro 1.6 -->
 <path id="雪" d="M1011.295 512.5 C1011.295 236.471 787.529 12.705 511.5 12.705 235.471 12.705 11.705 236.471 11.705 512.5 11.705 788.529 235.471 1012.295 511.5 1012.295 787.529 1012.295 1011.295 788.529 1011.295 512.5 Z" fill="#ffffff" fill-opacity="1" stroke="none"/>
 <g id="New-Group">
  <path id="シェイプ" d="M502 921.879 C283.508 916.649 107.351 740.492 102.121 522 L142.135 522 C147.346 718.4 305.6 876.654 502 881.865 L502 921.879 Z" fill="#1a84d5" fill-opacity="1" stroke="none"/>
  <path id="シェイプ-1" d="M502 841.85 C327.694 836.662 187.339 696.306 182.15 522 L222.17 522 C227.328 674.212 349.787 796.67 502 801.828 L502 841.85 Z" fill="#1a84d5" fill-opacity="1" stroke="none"/>
  <path id="シェイプ-2" d="M502 761.803 C371.882 756.684 267.316 652.118 262.197 522 L302.234 522 C307.299 630.022 393.978 716.701 502 721.766 L502 761.803 Z" fill="#1a84d5" fill-opacity="1" stroke="none"/>
 </g>
 <g id="New-Group-コピー">
  <path id="シェイプ-3" d="M522 921.879 L522 881.865 C718.4 876.654 876.654 718.4 881.865 522 L921.879 522 C916.648 740.492 740.492 916.649 522 921.879 Z" fill="#44bf8b" fill-opacity="1" stroke="none"/>
  <path id="シェイプ-4" d="M606.199 828.274 L596.059 789.554 C741.423 745.635 828.407 596.475 794.908 448.247 L833.622 438.108 C872.688 607.717 772.927 778.724 606.199 828.274 Z" fill="#44bf8b" fill-opacity="1" stroke="none"/>
  <path id="シェイプ-5" d="M643.746 724.472 L624.025 689.629 C715.54 632.014 748.28 513.884 699.48 417.38 L734.323 397.659 C793.959 513.419 754.463 655.927 643.746 724.472 Z" fill="#44bf8b" fill-opacity="1" stroke="none"/>
 </g>
 <path id="桜" d="M261.931 501 L302 501 302 201 261.931 201 Z" fill="#ff8db6" fill-opacity="1" stroke="none"/>
 <path id="桜-1" d="M181.931 501 L222 501 222 301 181.931 301 Z" fill="#ff8db6" fill-opacity="1" stroke="none"/>
 <path id="桜-2" d="M101.931 501 L142 501 142 400 101.931 400 Z" fill="#ff8db6" fill-opacity="1" stroke="none"/>
 <path id="雪-1" d="M512 1022 C230.335 1022 2 793.665 2 512 2 230.335 230.335 2 512 2 793.665 2 1022 230.335 1022 512 1022 793.665 793.665 1022 512 1022 Z M511.5 1002.295 C782.006 1002.295 1001.295 783.006 1001.295 512.5 1001.295 241.994 782.006 22.705 511.5 22.705 240.994 22.705 21.705 241.994 21.705 512.5 21.705 783.006 240.994 1002.295 511.5 1002.295 Z" fill="#505050" fill-opacity="1" stroke="none"/>
 <path id="雪-2" d="M632 512 C632 445.726 578.274 392 512 392 445.726 392 392 445.726 392 512 392 578.274 445.726 632 512 632 578.274 632 632 578.274 632 512 Z" fill="#e27b7b" fill-opacity="1" stroke="none"/>
</svg>
